<svg xmlns="http://www.w3.org/2000/svg" viewBox="0 0 1280 720" width="1280" height="720">
  <defs>
    <linearGradient id="navyBand" x1="0" y1="0" x2="0" y2="1">
      <stop offset="0%" stop-color="#1A3C6E" />
      <stop offset="100%" stop-color="#0F2445" />
    </linearGradient>
    <linearGradient id="accentLine" x1="0" y1="0" x2="1" y2="0">
      <stop offset="0%" stop-color="#2E86DE" />
      <stop offset="100%" stop-color="#E8B931" />
    </linearGradient>
  </defs>
  <rect width="1280" height="720" fill="#FFFFFF" />
  <rect x="0" y="0" width="1280" height="380" fill="url(#navyBand)" />
  <path fill="#FFFFFF" fill-opacity="0.03" transform="rotate(15, 1080, 200)" d="M924,40 H1236 A4,4 0 0 1 1240,44 V356 A4,4 0 0 1 1236,360 H924 A4,4 0 0 1 920,356 V44 A4,4 0 0 1 924,40 Z" />
  <path fill="#FFFFFF" fill-opacity="0.04" transform="rotate(25, 1080, 200)" d="M964,80 H1196 A4,4 0 0 1 1200,84 V316 A4,4 0 0 1 1196,320 H964 A4,4 0 0 1 960,316 V84 A4,4 0 0 1 964,80 Z" />
  <circle cx="1080" cy="200" r="80" fill="none" stroke="#2E86DE" stroke-width="1" stroke-opacity="0.15" />
  <circle cx="1080" cy="200" r="120" fill="none" stroke="#E8B931" stroke-width="0.8" stroke-opacity="0.1" />
  <circle cx="950" cy="60" r="3" fill="#2E86DE" fill-opacity="0.4" />
  <circle cx="1020" cy="90" r="2" fill="#E8B931" fill-opacity="0.3" />
  <circle cx="1150" cy="120" r="4" fill="#2E86DE" fill-opacity="0.2" />
  <rect x="80" y="380" width="1120" height="4" fill="url(#accentLine)" />
  <g id="cover-title">
    <text x="80" y="150" font-family="Georgia, SimHei, serif" font-size="48" font-weight="bold" fill="#FFFFFF">EdgeThemis</text>
    <text x="80" y="210" font-family="Georgia, SimHei, serif" font-size="28" fill="#FFFFFF" fill-opacity="0.95">基于形式化验证的因果推理引擎</text>
    <text x="80" y="255" font-family="Georgia, SimHei, serif" font-size="20" fill="#FFFFFF" fill-opacity="0.7" font-style="italic">A Causal Reasoning Engine with Formal Verification</text>
  </g>
  <g id="cover-keywords">
    <path fill="#2E86DE" fill-opacity="0.25" d="M95,300 H185 A15,15 0 0 1 200,315 V315 A15,15 0 0 1 185,330 H95 A15,15 0 0 1 80,315 V315 A15,15 0 0 1 95,300 Z" />
    <text x="140" y="320" text-anchor="middle" font-family="Arial, sans-serif" font-size="13" fill="#FFFFFF" font-weight="600">LLM</text>
    <path fill="#2E86DE" fill-opacity="0.25" d="M230,300 H360 A15,15 0 0 1 375,315 V315 A15,15 0 0 1 360,330 H230 A15,15 0 0 1 215,315 V315 A15,15 0 0 1 230,300 Z" />
    <text x="295" y="320" text-anchor="middle" font-family="Arial, sans-serif" font-size="13" fill="#FFFFFF" font-weight="600">Formal Verification</text>
    <path fill="#2E86DE" fill-opacity="0.25" d="M405,300 H475 A15,15 0 0 1 490,315 V315 A15,15 0 0 1 475,330 H405 A15,15 0 0 1 390,315 V315 A15,15 0 0 1 405,300 Z" />
    <text x="440" y="320" text-anchor="middle" font-family="Arial, sans-serif" font-size="13" fill="#FFFFFF" font-weight="600">FMEA</text>
    <path fill="#E8B931" fill-opacity="0.25" d="M520,300 H570 A15,15 0 0 1 585,315 V315 A15,15 0 0 1 570,330 H520 A15,15 0 0 1 505,315 V315 A15,15 0 0 1 520,300 Z" />
    <text x="545" y="320" text-anchor="middle" font-family="Arial, sans-serif" font-size="13" fill="#FFFFFF" font-weight="600">DAG</text>
    <path fill="#E8B931" fill-opacity="0.25" d="M615,300 H745 A15,15 0 0 1 760,315 V315 A15,15 0 0 1 745,330 H615 A15,15 0 0 1 600,315 V315 A15,15 0 0 1 615,300 Z" />
    <text x="680" y="320" text-anchor="middle" font-family="Arial, sans-serif" font-size="13" fill="#FFFFFF" font-weight="600">Neuro-Symbolic</text>
  </g>
  
  <g id="cover-refs">
    <text x="80" y="420" font-family="Arial, sans-serif" font-size="13" fill="#7F8C8D">Based on: MSR (2023) Corr2Cause + Reflexion (NeurIPS 2023) + FMEA Industrial Standards</text>
    <text x="80" y="445" font-family="Arial, sans-serif" font-size="13" fill="#7F8C8D">Target: 8GB VRAM Edge Deployment (RTX 4060) · NeurIPS / ICLR</text>
  </g>
  <g id="cover-info">
    <text x="80" y="500" font-family="Arial, sans-serif" font-size="18" fill="#2C3E50" font-weight="600">[Author Name]</text>
    <text x="80" y="528" font-family="Arial, sans-serif" font-size="16" fill="#7F8C8D">[University / Lab]</text>
    <line x1="80" y1="548" x2="280" y2="548" stroke="#D5D8DC" stroke-width="1" />
    <text x="80" y="575" font-family="Arial, sans-serif" font-size="14" fill="#7F8C8D">2026</text>
  </g>
  <g id="cover-footer">
    <text x="1200" y="695" text-anchor="end" font-family="Arial, sans-serif" font-size="12" fill="#7F8C8D">EdgeThemis — Causal Reasoning with Formal Verification</text>
  </g>
</svg>